<svg width="1200" height="800" viewBox="0 0 1200 800" fill="none" xmlns="http://www.w3.org/2000/svg" role="img" aria-labelledby="title desc">
  <title id="title">Before: African business owner struggling in an empty office</title>
  <desc id="desc">An African entrepreneur in a quiet office looking stressed while checking a phone with no incoming calls.</desc>
  <defs>
    <linearGradient id="bg" x1="0" y1="0" x2="1200" y2="800" gradientUnits="userSpaceOnUse">
      <stop stop-color="#F8FAFC"/>
      <stop offset="1" stop-color="#EEF2FF"/>
    </linearGradient>
    <linearGradient id="desk" x1="0" y1="0" x2="0" y2="1">
      <stop stop-color="#E5E7EB"/>
      <stop offset="1" stop-color="#D1D5DB"/>
    </linearGradient>
    <filter id="shadow" x="0" y="0" width="1200" height="800" filterUnits="userSpaceOnUse" color-interpolation-filters="sRGB">
      <feDropShadow dx="0" dy="6" stdDeviation="8" flood-color="#0F172A" flood-opacity="0.08"/>
    </filter>
  </defs>

  <rect width="1200" height="800" fill="url(#bg)"/>

  <rect x="70" y="90" width="1060" height="620" rx="24" fill="#FFFFFF" filter="url(#shadow)"/>

  <rect x="120" y="150" width="300" height="170" rx="16" fill="#F3F4F6"/>
  <rect x="145" y="175" width="250" height="14" rx="7" fill="#D1D5DB"/>
  <rect x="145" y="205" width="180" height="12" rx="6" fill="#E5E7EB"/>
  <rect x="145" y="230" width="220" height="12" rx="6" fill="#E5E7EB"/>
  <rect x="145" y="255" width="150" height="12" rx="6" fill="#E5E7EB"/>

  <rect x="120" y="360" width="300" height="220" rx="16" fill="#F9FAFB" stroke="#E5E7EB"/>
  <rect x="145" y="395" width="250" height="18" rx="9" fill="#E5E7EB"/>
  <rect x="145" y="425" width="190" height="14" rx="7" fill="#F3F4F6"/>

  <rect x="520" y="500" width="560" height="130" rx="18" fill="url(#desk)"/>
  <rect x="565" y="465" width="220" height="35" rx="10" fill="#CBD5E1"/>
  <rect x="805" y="435" width="170" height="105" rx="10" fill="#E2E8F0" stroke="#CBD5E1"/>
  <rect x="818" y="448" width="144" height="62" rx="6" fill="#F8FAFC"/>
  <polyline points="828,495 855,480 878,488 910,468 948,478" stroke="#EF4444" stroke-width="5" fill="none" stroke-linecap="round" stroke-linejoin="round"/>

  <ellipse cx="830" cy="325" rx="115" ry="120" fill="#1F2937"/>
  <rect x="755" y="420" width="150" height="120" rx="24" fill="#334155"/>

  <ellipse cx="830" cy="300" rx="72" ry="78" fill="#8B5E3C"/>
  <circle cx="807" cy="293" r="6" fill="#0F172A"/>
  <circle cx="853" cy="293" r="6" fill="#0F172A"/>
  <path d="M804 325 Q830 312 856 325" stroke="#7C3F2A" stroke-width="5" stroke-linecap="round"/>
  <path d="M796 274 Q807 267 818 272" stroke="#0F172A" stroke-width="4" stroke-linecap="round"/>
  <path d="M842 272 Q853 267 864 274" stroke="#0F172A" stroke-width="4" stroke-linecap="round"/>

  <rect x="915" y="300" width="75" height="130" rx="16" fill="#111827" transform="rotate(16 915 300)"/>
  <rect x="924" y="312" width="57" height="93" rx="10" fill="#E5E7EB" transform="rotate(16 924 312)"/>
  <line x1="936" y1="334" x2="966" y2="342" stroke="#9CA3AF" stroke-width="4" stroke-linecap="round"/>
  <line x1="930" y1="355" x2="960" y2="363" stroke="#9CA3AF" stroke-width="4" stroke-linecap="round"/>

  <rect x="980" y="180" width="110" height="48" rx="24" fill="#FEE2E2" stroke="#FCA5A5"/>
  <text x="1035" y="211" text-anchor="middle" font-family="Inter, Arial, sans-serif" font-size="22" font-weight="700" fill="#B91C1C">0 Calls</text>

  <text x="600" y="700" text-anchor="middle" font-family="Inter, Arial, sans-serif" font-size="32" font-weight="700" fill="#B91C1C">No calls. No buyer conversations yet.</text>
</svg>
